/* XPM */
static char * door_xpm[] = {
"64 64 305 2",
"  	c #252728",
". 	c #383A3B",
"+ 	c #363838",
"@ 	c #3B3D3D",
"# 	c #383A3A",
"$ 	c #363839",
"% 	c #373939",
"& 	c #363738",
"* 	c #38393A",
"= 	c #393A3B",
"- 	c #393B3B",
"; 	c #37393A",
"> 	c #3C3D3D",
", 	c #333435",
"' 	c #353738",
") 	c #333536",
"! 	c #2F3132",
"~ 	c #3A3B3B",
"{ 	c #353637",
"] 	c #3D3F3E",
"^ 	c #3D3E3E",
"/ 	c #3D3F3F",
"( 	c #323434",
"_ 	c #2A2C2D",
": 	c #2E3031",
"< 	c #2D2E30",
"[ 	c #141719",
"} 	c #303232",
"| 	c #545555",
"1 	c #4E5050",
"2 	c #5B5B5B",
"3 	c #525353",
"4 	c #4E4F50",
"5 	c #515252",
"6 	c #4F5051",
"7 	c #595B5A",
"8 	c #535555",
"9 	c #555656",
"0 	c #555657",
"a 	c #545656",
"b 	c #535454",
"c 	c #5B5C5C",
"d 	c #494B4C",
"e 	c #595A5A",
"f 	c #4D4F4F",
"g 	c #555757",
"h 	c #575958",
"i 	c #454647",
"j 	c #4C4E4E",
"k 	c #545556",
"l 	c #505151",
"m 	c #4E4F4F",
"n 	c #515353",
"o 	c #585A59",
"p 	c #5E5F5F",
"q 	c #5D5D5D",
"r 	c #4C4D4E",
"s 	c #3F4142",
"t 	c #414243",
"u 	c #494A4B",
"v 	c #4B4C4D",
"w 	c #5C5C5C",
"x 	c #444546",
"y 	c #141618",
"z 	c #282A2C",
"A 	c #3B3C3E",
"B 	c #353638",
"C 	c #323435",
"D 	c #323436",
"E 	c #37393B",
"F 	c #38393B",
"G 	c #37383A",
"H 	c #343637",
"I 	c #36383A",
"J 	c #2E3032",
"K 	c #313234",
"L 	c #343537",
"M 	c #2F3133",
"N 	c #313335",
"O 	c #343638",
"P 	c #363739",
"Q 	c #333537",
"R 	c #353739",
"S 	c #2B2D2F",
"T 	c #2C2E30",
"U 	c #2A2D2F",
"V 	c #313334",
"W 	c #2E3132",
"X 	c #2A2C2E",
"Y 	c #131618",
"Z 	c #2B2C2E",
"` 	c #424444",
" .	c #333436",
"..	c #303234",
"+.	c #303233",
"@.	c #2D2F32",
"#.	c #2D2F31",
"$.	c #2F3233",
"%.	c #2C2F31",
"&.	c #272A2C",
"*.	c #292C2E",
"=.	c #131518",
"-.	c #282A2B",
";.	c #3B3C3D",
">.	c #252729",
",.	c #202325",
"'.	c #222426",
").	c #212326",
"!.	c #232628",
"~.	c #242628",
"{.	c #25282A",
"].	c #242729",
"^.	c #242629",
"/.	c #26292B",
"(.	c #2C2D2F",
"_.	c #27292B",
":.	c #27292C",
"<.	c #26282A",
"[.	c #222527",
"}.	c #232627",
"|.	c #292B2D",
"1.	c #212426",
"2.	c #15181A",
"3.	c #16181B",
"4.	c #17191C",
"5.	c #191C1E",
"6.	c #1D1F21",
"7.	c #181B1D",
"8.	c #181A1D",
"9.	c #1C1E20",
"0.	c #1E1F22",
"a.	c #1C1E21",
"b.	c #1B1D1F",
"c.	c #1B1E20",
"d.	c #171A1C",
"e.	c #1A1C1E",
"f.	c #1A1C1F",
"g.	c #191B1D",
"h.	c #1C1F21",
"i.	c #181A1C",
"j.	c #1A1D1F",
"k.	c #17191B",
"l.	c #121517",
"m.	c #3D3F40",
"n.	c #0E1113",
"o.	c #323335",
"p.	c #0F1113",
"q.	c #282B2D",
"r.	c #0F1114",
"s.	c #393A3C",
"t.	c #25272A",
"u.	c #252829",
"v.	c #1F2224",
"w.	c #202225",
"x.	c #3D3E40",
"y.	c #404243",
"z.	c #212325",
"A.	c #14181A",
"B.	c #131719",
"C.	c #131619",
"D.	c #121618",
"E.	c #121619",
"F.	c #1F2123",
"G.	c #2B2E30",
"H.	c #424344",
"I.	c #121417",
"J.	c #424445",
"K.	c #090D0F",
"L.	c #1E2022",
"M.	c #2D3031",
"N.	c #434445",
"O.	c #121416",
"P.	c #2B2D2E",
"Q.	c #434546",
"R.	c #0A0E0F",
"S.	c #0F1214",
"T.	c #121518",
"U.	c #111417",
"V.	c #0D1012",
"W.	c #111416",
"X.	c #16191B",
"Y.	c #111517",
"Z.	c #3E3F41",
"`.	c #454648",
" +	c #1D2022",
".+	c #1E2123",
"++	c #1F2124",
"@+	c #202224",
"#+	c #1E2023",
"$+	c #0A0D0F",
"%+	c #3E4041",
"&+	c #222526",
"*+	c #444647",
"=+	c #232528",
"-+	c #15191B",
";+	c #232527",
">+	c #0A0E10",
",+	c #2D3032",
"'+	c #2F3234",
")+	c #414344",
"!+	c #3C3D3F",
"~+	c #2C2E2F",
"{+	c #48494B",
"]+	c #1F2223",
"^+	c #2E3133",
"/+	c #2E3033",
"(+	c #2B2D30",
"_+	c #2F3134",
":+	c #2C2E31",
"<+	c #3A3C3D",
"[+	c #454748",
"}+	c #1B1F21",
"|+	c #3B3D3E",
"1+	c #292B2C",
"2+	c #282A2D",
"3+	c #2D3033",
"4+	c #1C2021",
"5+	c #393B3D",
"6+	c #2C2F2F",
"7+	c #36393A",
"8+	c #2A2C2F",
"9+	c #1B1E21",
"0+	c #414244",
"a+	c #26282B",
"b+	c #393B3C",
"c+	c #16191A",
"d+	c #424345",
"e+	c #464748",
"f+	c #292B2E",
"g+	c #181C1D",
"h+	c #3C3E3F",
"i+	c #262829",
"j+	c #101214",
"k+	c #464849",
"l+	c #26292A",
"m+	c #48494A",
"n+	c #1B1D20",
"o+	c #262729",
"p+	c #1F2122",
"q+	c #434446",
"r+	c #36373A",
"s+	c #3C3E40",
"t+	c #292C2D",
"u+	c #101114",
"v+	c #474849",
"w+	c #47494A",
"x+	c #292A2C",
"y+	c #444547",
"z+	c #383A3C",
"A+	c #424446",
"B+	c #1C1F22",
"C+	c #1C2022",
"D+	c #3A3B3D",
"E+	c #282B2C",
"F+	c #3F4042",
"G+	c #181B1C",
"H+	c #181B1E",
"I+	c #242728",
"J+	c #222427",
"K+	c #3A3C3E",
"L+	c #2A2B2D",
"M+	c #212324",
"N+	c #303134",
"O+	c #404143",
"P+	c #2A2D2E",
"Q+	c #0B0E10",
"R+	c #1D2123",
"S+	c #464749",
"T+	c #2B2E31",
"U+	c #1D2023",
"V+	c #3B3D3F",
"W+	c #27292A",
"X+	c #242627",
"Y+	c #2C2F30",
"Z+	c #1A1E20",
"`+	c #16181A",
" @	c #272A2B",
".@	c #2D2F30",
"+@	c #252628",
"@@	c #404142",
"#@	c #1D2021",
"$@	c #15191A",
"%@	c #1A1D20",
"&@	c #141718",
"*@	c #191C1F",
"=@	c #1E2124",
"-@	c #1D1F22",
";@	c #313435",
">@	c #222425",
",@	c #181C1E",
"'@	c #3E3F40",
")@	c #1E2122",
"!@	c #1D1F20",
"~@	c #0C0F11",
"{@	c #101315",
"]@	c #131718",
"^@	c #151819",
"/@	c #0B0F11",
"(@	c #101215",
"_@	c #111316",
":@	c #202326",
"<@	c #35383A",
"[@	c #343738",
"}@	c #101416",
"|@	c #0D1013",
"  . + @ # $ % & @ * . = = = - = = . # ; ; ; > , @ ' - - ) ! ) * * ; # . . # = . * * ; % > # ~ { ' * ~ ] ^ / ( ( _ _ : ! % ~ < [ ",
"} | 1 2 3 4 5 6 7 8 9 0 0 a 9 9 0 a 8 8 b b c d e f g h d i j g a 3 b 9 a k 9 9 8 a b l c 9 g m n a o p p q r r s t u v b w x y ",
"z A < ) B C D E F B G H I $ I F E ; I $ $ $ ' B J K L H M N H L O O I H P $ $ Q R R O S L ' T M ' R ' ' O : U J C V R G W X z Y ",
"Z ` M  .....+.@.#.J V #...M $.N ) M M M M M M J J S W J J T #.#.J M W S J W M S J J M %.$.J S %.W W J J J #.&.%.#.#.#.M $ T *.=.",
"-.;.L Q >.,.'.).!.~.{.&.].^./.z (._._._._./.:._./.<.{.<._.:./././.<.[.[.~.>._.<.!.>._.&.z &.z :.&._./.}.!.{.{.<.!.~.[.T $ ) |.=.",
"<.; L L 1.[ 2.3.4.3.5.6.7.8.9.9.0.9.9.a.9.9.a.9.9.9.b.b.9.9.9.9.c.9.4.d.e.f.c.b.g.e.9.9.h.a.a.a.9.9.9.8.i.j.e.f.7.j.k.I R O |.l.",
"-.m.O O <.n._.' $ ; ; ) C z X L N +.M V N C C ) N D D  .o. .L ' o.K C ) O o.#.) ' . . T ; $ ) ) C ) H H N N C V _.9.p.;.' O |.l.",
"|.s L O q.r.s.].[.].].<././.&.<.{.>.t.>.{.{.{.t.{.<.>.>.t.>.>.].].^.!.~.~.!.~.*.z >.].{.>.t.>.t.u.t.>.>.t.v.w.1.'.*.r.x.' ' |.l.",
"Z t M ' |.r.y.u.z.e.A.B.B.B.B.B.C.D.D.D.D.D.D.Y Y Y D.Y Y B.B.Y C.B.B.C.C.Y E.B.C.Y D.D.D.Y Y D.D.Y B.B.A.A.c.F.G.T p.H.B O |.I.",
"Z x ; ' *.p.J.>.6.K.K.K.K.K.K.K.K.K.K.K.K.K.K.K.K.K.K.K.K.K.K.K.K.K.K.K.K.K.K.K.K.K.K.K.K.K.K.K.K.K.K.K.K.K.K.L.M.T r.N.H ' z O.",
"P.x I R X n.Q.{.5.R.S.Y B.B.C.Y Y Y Y Y D.D.D.D.D.D.D.T.U.l.B.V.W.X.B.Y C.Y Y C.B.B.[ B.B.B.B.[ B.B.Y Y Y.S.K.7.D T r.y.D ' z W.",
"z Z.$ O X n.`.<.5.R.y b. +z.h..+.+ +v..+w.v.++w.a..+@+,.j.j.#+W.e.v.j.z.). +z.,.v..+z.,.,.,..+,.w.,.c.@+d.[ $+6.O G.p.%+M M z W.",
"&+! J #.~.r.*+<.#+R.[  +v.].1.!.!.!.^.^.].^.!.].1.~.^.^.'.,.F.Y 9.>.,.>.].=+].>.].^.t.t.{.{.{.{.{.{.!.].c.-+R.z.F T r.E q._.;+W.",
"_ x J.A &.p.I |.@+>+z.%.,+M M M M M ......N T X '+G.M ....q.q.e._ E ) L O L Q Q L H O M Q J M.Q M G.J S <.[.R.~.O #.p.)+!+$ U O.",
"~+{+I R ~.p.E <.]+R.d.{.X G.%.G.#.^+^+#.S M ,+@./+X |.(+J z U 5.: E T ..#.'+'+_+'+'+'+J M ^+^+M X *.:+X [.h.R.!...J p.<+R Q z I.",
"~+[+R M t.r.Q.q.c.>+7.t.q.q.&.%.,+,+,+,+,+,+J ,+,+,+J (+*.:.U 5.~+I ,+U ^+^+/+/+/+^+^+/+/+^+/+^+^+^+^+T /.}+$+;+s.J p.|+H H _.I.",
"1+s R ../.r.H.q..+>+b._.2+|.,+,+,+,+,+J J /+,+3+J /+J /+J %.S e.~+I ^+^+^+^+^+^+^+^+^+^+^+^+^+^+^+^+^+^+T 4+R.;+5+M.r.<+O O _.I.",
"_.A B ..].r.F z .+>+d.>.&.T @.,+,+,+,+J J J J ,+J J S ,+^+U U 5.6+7+^+^+^+^+^+^+^+^+^+^+^+/+^+,+J ^+^+/+*.h.R.!.5+#.r.N R D <.I.",
"<.; B O <.r.D _.L.>+X.].2+q.#.%.:+,+J J J J ,+J ,+J J J J T S 5.~+$ /+^+^+/+^+^+/+^+^+^+^+/+/+8+#./+^+%.z 9+R.;+s.T r.s $ Q z I.",
"_ 0+P B a+r.b+|.h.>+c+^.&.&.G.%.U %.J ,+J /+J ,+/+J J J J S U 5._ O ^+/+^+/+/+^+/+^+^+^+^+/+^+#.,+/+,+U q.c.R.F.Q J r.d+R ' z I.",
"~+e+I H _.r.b+f+.+>+X.!.z U (+,+#.#.J ,+@.J ,+/+/+J %.,+J q.U g+_ O ^+^+^+/+,+%./+^+^+^+^+/+^+/+/+/+J U *.}+R.'.Q S S.*+R O &.l.",
"~+[+I Q /.r.h+z .+>+7./.U |.,+J J ,+,+:+@.,+,+J /+J X G.J 8+|.7.i+N T ^+:+:+%.,+/+^+/+%.,+^+,+/+:+@.,+f+f+c.R.;+$ q.j+k+R H z I.",
"Z J.I ) l+r.!+8+]+>+c.|.U S %.U ,+G.%.,+,+J J J #.%.@.,+,+#.|.7.|.Q X /+U U J ,+%./+/+,+J ^+%./+,+*.U %.q.h.R.;+F q.j+m+R ' |.l.",
"P.Q.$  .>.r.5+S v.>+n+/.*.S *.U S T (+%.,+,+,+%.G.X U T 8+8+>.d.o+M U 8+T *.U ,+T G./+f+J X ,+J %.%.:+,+>.c.R.~.s.z r.N...O |.l.",
"P.Q.$ O <.r.x.G.v.>+2..+!.<.a+/./.:.&.:.&.&.:.z _._././.<.>.'.7.p+z <./.:./._.:._._.&._./.t._./.<.a+].!.w.5.R.;+A {.r.q+O O q.l.",
"X d+$ Q _.r.h+X c.>+]+U T ..T '+Q ..J N Q Q ' D N P ..N R G.X 7.P.F Q ..P R Q r+D B I J :+O N Q '+J T X /.c.R.;+D X S.i R B z l.",
"P.Q.Q ..<.r.s+X .+>+9._.q.S X X ,+#.T U (+@.#.%.%.@.#.@.S S &.7.t+Q S %.#.#.@.@.,+@.G.,+%.(+G.G.%.%.&.8+@+5.$+[.P X u+v+E H z I.",
"~+w+<+ .>.r.y.X .+>+e.:.f+*.*.S X G.%.U %.%.%.%.%.%.%.%.*.G.q.5.x+N G.%.%.%.@.#.%.T :+:+%.@.#.%.%.G.&.{.{.c.$+;+G q.r.y+R  .z O.",
"S k+z+' <.r.d+X .+>+5./.|.*.f+(+(+%.%.%.%.%.%.%.%.%.%.:+:+G.f+5.1+D *.%.%.%.#.@.#.#.#.U (+@.#.%.%.%.U &.a+}+R.;+O T r.k+N Q {.I.",
"~+`.; N _.r.A+X .+>+7.{.|.(+*.8+%.%.%.%.%.%.%.%.%.%.%.:+%.G.*.5.X Q :+:+%.%.%.#.%.T %.%.%.%.*.G.*.%.T f+z B+R.}.' T r.m+F Q ^.I.",
"S [+b+B &.S.)+T .+>+[ ].*.q.U 8+%.%.:+%.%.%.%.%.%.%.%.:+:+q.*.5.P.Q %.%.%.%.%.#.T S %.%.%.%.q.%.%.%.U U 2+C+>+;+H T S.w+b+P z I.",
"z 0+z+' _.r.s+%..+>+2.].U S (+S %.%.G.:+:+:+%.%.%.%.%.:+:+*.f+7._ Q %.%.%.%.:+%.%.%.%.%.%.%.(+%.:+:+U 8+f+ +R.;+<+T r.k+D $ z O.",
"-.%+E  .z r.y+(+ +>+X.{.8+%.X %.%.%.U G.%.:+:+:+U S %.:+%.(+|.7._ C S :+%.:+%.%.%.%.%.%.:+%.:+(+:+G.z &.2+9+R.;+D+T p.0+F $ z I.",
"E+F+B ..z r.*+X h.>+G+/.*.G.%.S G.%.:+:+S T :+T |.|.T S :+z a+7.t+D |.S G.:+:+:+:+:+:+:+:+:+:+*.:+*.&.q./.9+R.~.I #.p.Z.E I z I.",
"1+0+' Q z r.d+*.H+>+7./.f+*.(+U X %.T S q.U :+%.%.:+U *.%._.z.2._ D |.*.T T T :+:+T U :+:+:+:+%.%.%.*.8+I+h.R.!.D+#.p.m.G I z O.",
"|.J.b+D z r.J.|.7.>+5.{.&.&.:.q.z q._.>.{.z /.&.z z a+z z ].J+[ @+8+/.q.2+&.:.t.{.z /.z 2+2+z 2+z &.&.a+[.h.R.;+K+T r.d+I I z I.",
"L+J.z+B ].S.J.&.h.>+b._.|.*.*.2+8+X z *.S S |.T T T |.|.T X >.-+M+#.S 8+U t+_.z |.S (.S S T J M.S z *.X <. +R.!.A S r.[+L I z O.",
"_ J.; B {.S.)+:..+>+g./.*.%.#.:+J @.#.M ..J J ......,+,+N+M 8+7.1+O #.:+J J %.M /+J _+M M _+D N M #.T T &.}+R.z.A T r.k+. ; z I.",
"P.Q.. R _.S.O+|..+>+5./.q.G.q.G.G.G.G.G.T U G.G.T T T %.*.%.f+7.1+D S f+U (+T G.G.S :+T :+T G.G.G.G.2+X /.B+R.1.|+#.r.y+. ; z I.",
"P+x ' Q <.S.)+|.F.Q+c._.*.*.U T G.G.G.G.G.G.T T T :+T :+U U a+7.1+ .*.U G.|.(+:+T T :+G.G.T G.G.G.G.U *.&.R+R.!.|+T r.y.E I &.O.",
"~+S+R Q {.S.)+<..+>+h.&.f+*.U G.T G.G.G.G.|.G.T T T T T T X &.7.t+Q S G.G.2+G.T G.G.T+*.G.(+U G.T G.q.&.q.U+>+;+V+S p.D+; ; _.O.",
"_.z+Q H !.r.F+|..+>+7.^._.U *.G.G.f+(+G.G.G.T T :+T T G.T 8+|.7.1+N X 2+G.q.(+T G.G.G.G.T *.G.T G.T 2+/.*.U+R.;+V+..r.L ..I _.I.",
"W+b+$ D ].S.m./..+>+5.<.(+G.G.G.G.f+U G.T (+T G.G.G.*.G.G.U f+7.L+D U (+G.S G.(+*.G.T G.T q.q.2+8+G.8+:.&. +R.!.<+..r.!+' R _.O.",
"_ )+D N |.r.d+|..+>+7.].*.G.G.G.G.G.G.G.G.q.G.G.G.G.T G.G.U |.7.1+K U G.G.G.G.U *.G.G.G.G.G.8+&.q.U S 2+&. +$+!.<+J r.s+:+M &.W.",
";+G.X U ;+S.%+|..+>+5.t.2+*.*.G.G.G.X U G.G.G.G.G.U G.T G.&.q.7.W+M *.G.G.G.G.T (+S G.(+G.G.G.8+U U |.&./. +R.!.D+T r.V X :.1.I.",
"<.. b+L {.r.Q X .+>+j.^./._.&.8+8+S *.f+U G.G.G.G.S G.G.G.f+q.7.X+T 2+(+(+*.(+U *.*.(+q.U G.X U G.8+U _.a+C+R.!.b+Y+r.. Q +.!.I.",
"x+x.; B 2+r.. S v.>+7.[.a+:.z 2+2+*.U q.*.G.G.G.U 8+U G.G.G.2+d.p+q._.8+8+f+f+f+*.f+U q.U (+&.q.(+f+2+t.!.Z+$+!.z+%.r.K+O ' z O.",
"L+F+N Q 2+r.. |.++>+2.v.!.].t././.:.a+{.:.&.&.&.<.{.:.z z _.!.[ 6.<.{.:.{._.].{.&._.:.&.&.&.{.:.&.].>.w. +d.R.!.; %.r.. '+Q /.O.",
"L+O+) H ].r.%+|..+>+`+)._.|.|.X |.|.z |.*.S X S q.|.S T S G.<.[ z.S  @z q.X z q.2+q.2+2+P+|..@M.#.:.{.1. +7.R.!.G (+r.<+..C {.O.",
"L+O+ .Q !.S.O+|. +>+X.~.q.|.*.X |.|.z *.X J %.J T %.#.#.S S /.X.;+,+|.|.8+S f+*.*.|.|.|.U X Y+#.#.|./.!.].c.R.}.. X r.!+..Q <.I.",
"L+O+M D {.r.0+z j.>+2.J+{.!.^.t.<.!._.&._.z *.8+*./.z :.a+{.;+X.+@#./.<.z /._._._././././././.a+a+a+<.!.,.j.R.~.b+T r.Z.N .@/.I.",
"1+@@ .o.<.S.)+/.#@>+$@[.<.!.{.{.<.t./._.:._.:.&.&.].{./.].^.!.d.'.T ].<.{.a+_./.t.a+/././././.a+<.<.t.{.].%@R.!.b+%.r.@@ .C /.l.",
"-.x.L K <.S.0+<.9.Q+2.[.<.>.a+/./.<./._._./._./._.<.{.[.{.~.[.d.M+X {.<.'.{.>.>.^.{.{./.<./.<.<.<.{.;+<.<.Z+R.!.I #.j+0+R ' _.l.",
"_.V+P K !.S.s >.c.>+2.[.>.t._.a+/./././.<./._./././.<.].<.!.[.d.F.|.>.].!.].^.=+].^.>.<.a+<.<.<.{.<.{.{.<.9+R.;+E #.S.y.R ' /.l.",
">.R ; ..~.S.h+{.5.>+&@1.~.<.!.{./././.a+{.a+/./._./.a+<.<.J+J+d.L.:.!.1.{.{.{.{.{.{.t.{.a+{.{.{.{.<.[.{.{.9+R.}.s.J S.O+R O <.l.",
";+K B M ].r.I z 7.>+Y v.1.].J+!./././.a+a+/./.t._._././.<.~.=+d.9./.=+].t.{.].a+{.<.<.{.<.>.{.{.{.{.[.!.=+%@R.}.D+J S.H.R H /.I.",
";+C K+..~.S.E z 7.>+[  +,.;+].;+;+{.<.{.{.<.^.,.^.!.!.!.<.!.!.X.b.a+;+=+t.>.).!.^.].].t.].1.1.a+;+1.<.[.v.j.>+~.b+J j+)+O ) <.l.",
"~.O V+N ^.r.s._.H+>+Y *@ +v.v.v.F.v.,.).).1.,.v.@+v..+=@,..+#+2.c+v..+=@,.v.U+h.h.9.c.#+h.a.c.6.c.c.6.a.-@7.>+~.R @.S.' J D a+I.",
"~.P <+D {.S.; <.H+>+j.>._.X Y+M #.T S ....N ;@K N N K ..+.S ~.X.>@M J M M N J |.M M M ....C ~+ .t.+.! ]._.,@>+1.I P+j+'@M D _.l.",
"<.|+R N {.r.b+/.7.>+B.h.v.,.v.!.[.!.!.=+].[.!.].~.=+v.;+].[.,.d.e.;+1..+,.1.>.].~.!.=+~.>.;+[.~.J+v.[.1..+5.>+'.h+z S.|+D N _.l.",
"o+D+#.N {.r.P >.7.>+l.c.h.c.c.h. +L..+h.v. +z.w.,..+j.j.)@j.5.2.!@=+c..+ +9.v.L.@+.+.+ +'.1.F.6.h..+v.6.X.d.>+).s.<.S.b+) z _.O.",
"o+|+N |.{.r.J t.j.~@{@l.l.l.T.Y Y Y Y Y Y Y Y ]@Y Y Y Y Y B.[ [ [ [ [ [ B.[ [ [ Y 2.^@^@[ 2.[ [ [ B.&@[ l.l.>+,.#.1.S.S X U z l.",
"L.#.#.>..+S.z 1.5.n.2.Z+h.h.h.#+ +h. +.+w..+v.,.,.).1.1.1.1.).[.^.^.~.!.~.!.=+'.,.[.1.1.1.1.v..+,.v..+.+j.7./@;+(+!.(@X X X [.W.",
"X.=.O.W._@j+r.n.V.S.j.v.:@[.~.|.T T ,+,+/+#.J ..T C ..M _+N N Q $ R I E z+z+z+7+<@I I R O [@Q H #.T |.q..+c.}@|@S.{@{@_@_@_@O._@"};
