/* XPM */
static char *labyrinth_wall_xpm[] = {
"16 16 4 1",
"0 c #1A1A1A",  /* fond sombre profond */
"1 c #3C3C3C",  /* pierre gris foncé */
"2 c #5C5C5C",  /* pierre gris moyen */
"3 c #8A8A8A",  /* lueur légère pour relief */
"0001111222221110",
"0011122223332210",
"0122223111332220",
"0122331111223320",
"0112222233322110",
"0113332222233110",
"0122223111332220",
"0123331111223320",
"0112222233322110",
"0113332222233110",
"0122223111332220",
"0123331111223320",
"0112222233322110",
"0011122223332210",
"0001111222221110",
"0000000000000000"
};

