/* XPM */
static char *torche_xpm[] = {
"32 32 5 1",
"  c None",
". c #000000",
"# c #FFD700",
"o c #FF4500",
"+ c #FFFFFF",
"                                ",
"                                ",
"                                ",
"                                ",
"               oo               ",
"              ooo               ",
"             o#o#o              ",
"              ooo               ",
"             .o#o.              ",
"              ...               ",
"               .                ",
"               .                ",
"               .                ",
"              ...               ",
"             .+.+.              ",
"             .+.+.              ",
"             .+.+.              ",
"              .+.               ",
"              .+.               ",
"              .+.               ",
"              .+.               ",
"              .+.               ",
"              .+.               ",
"              .+.               ",
"              .+.               ",
"              .+.               ",
"              .+.               ",
"              .+.               ",
"              ...               ",
"                                ",
"                                ",
"                                "
};


