/* XPM */
static char * north_xpm[] = {
"64 64 247 2",
"  	c #26282B",
". 	c #282A2D",
"+ 	c #27292C",
"@ 	c #26292C",
"# 	c #28292C",
"$ 	c #25272B",
"% 	c #25272A",
"& 	c #26282A",
"* 	c #242629",
"= 	c #232528",
"- 	c #222427",
"; 	c #212427",
"> 	c #232629",
", 	c #222528",
"' 	c #212326",
") 	c #202226",
"! 	c #222428",
"~ 	c #232428",
"{ 	c #202325",
"] 	c #1F2125",
"^ 	c #1F2225",
"/ 	c #1F2124",
"( 	c #1E2124",
"_ 	c #2B2D2F",
": 	c #404143",
"< 	c #494B4D",
"[ 	c #4C4D4F",
"} 	c #48494B",
"| 	c #494A4C",
"1 	c #4E4F51",
"2 	c #4D4E50",
"3 	c #4B4C4E",
"4 	c #4A4B4D",
"5 	c #4C4D50",
"6 	c #444547",
"7 	c #47484A",
"8 	c #464749",
"9 	c #424345",
"0 	c #383A3C",
"a 	c #37393B",
"b 	c #2D2F32",
"c 	c #27282B",
"d 	c #3B3C3F",
"e 	c #4B4C4F",
"f 	c #4F5052",
"g 	c #505153",
"h 	c #4A4B4E",
"i 	c #4F5051",
"j 	c #424346",
"k 	c #4A4A4C",
"l 	c #3B3D3F",
"m 	c #2D2F31",
"n 	c #414244",
"o 	c #353639",
"p 	c #363739",
"q 	c #36373A",
"r 	c #393A3D",
"s 	c #393A3C",
"t 	c #37383A",
"u 	c #38393B",
"v 	c #333436",
"w 	c #353638",
"x 	c #343538",
"y 	c #343537",
"z 	c #333437",
"A 	c #303134",
"B 	c #2D2E31",
"C 	c #2C2D30",
"D 	c #3A3B3D",
"E 	c #343638",
"F 	c #37373A",
"G 	c #37383B",
"H 	c #36383A",
"I 	c #2F3133",
"J 	c #292A2D",
"K 	c #1E2023",
"L 	c #38393C",
"M 	c #363639",
"N 	c #323436",
"O 	c #323336",
"P 	c #313335",
"Q 	c #2E2F32",
"R 	c #262729",
"S 	c #333537",
"T 	c #303234",
"U 	c #242628",
"V 	c #3F4043",
"W 	c #333538",
"X 	c #313235",
"Y 	c #353739",
"Z 	c #38383B",
"` 	c #2E3033",
" .	c #414245",
"..	c #39393C",
"+.	c #2E3032",
"@.	c #242528",
"#.	c #28292B",
"$.	c #202225",
"%.	c #2B2D30",
"&.	c #2A2C2F",
"*.	c #2C2E31",
"=.	c #292B2E",
"-.	c #2A2B2E",
";.	c #27282C",
">.	c #26272B",
",.	c #212327",
"'.	c #1E1F22",
").	c #26282C",
"!.	c #2A2B2F",
"~.	c #2B2C30",
"{.	c #282A2C",
"].	c #232529",
"^.	c #212226",
"/.	c #1D1F22",
"(.	c #1B1C1F",
"_.	c #17191B",
":.	c #141619",
"<.	c #181A1D",
"[.	c #191B1E",
"}.	c #1A1B1E",
"|.	c #191A1D",
"1.	c #171A1C",
"2.	c #181A1C",
"3.	c #17191C",
"4.	c #18191C",
"5.	c #191B1D",
"6.	c #15171A",
"7.	c #1B1D1F",
"8.	c #17181B",
"9.	c #16181B",
"0.	c #16181A",
"a.	c #16171A",
"b.	c #141618",
"c.	c #2B2C2F",
"d.	c #292B2D",
"e.	c #2A2C2E",
"f.	c #282A2E",
"g.	c #24262A",
"h.	c #26272A",
"i.	c #1E2022",
"j.	c #292A2E",
"k.	c #28292D",
"l.	c #252629",
"m.	c #1C1D1F",
"n.	c #303235",
"o.	c #2F3134",
"p.	c #2C2E30",
"q.	c #2F3033",
"r.	c #212224",
"s.	c #313336",
"t.	c #323437",
"u.	c #222325",
"v.	c #3B3C3E",
"w.	c #222326",
"x.	c #1F2023",
"y.	c #434447",
"z.	c #242527",
"A.	c #404144",
"B.	c #313234",
"C.	c #434446",
"D.	c #232426",
"E.	c #3F4042",
"F.	c #252628",
"G.	c #222425",
"H.	c #3E3F41",
"I.	c #252728",
"J.	c #3D3D40",
"K.	c #444548",
"L.	c #252729",
"M.	c #2F3034",
"N.	c #232527",
"O.	c #3F4143",
"P.	c #1A1C1F",
"Q.	c #414144",
"R.	c #2E2F33",
"S.	c #202123",
"T.	c #202224",
"U.	c #242529",
"V.	c #3E3F42",
"W.	c #1B1D20",
"X.	c #343639",
"Y.	c #3C3C3F",
"Z.	c #232427",
"`.	c #3E3E41",
" +	c #434547",
".+	c #25262A",
"++	c #1D1F21",
"@+	c #232628",
"#+	c #1B1D21",
"$+	c #1F2022",
"%+	c #1C1E21",
"&+	c #3D3E40",
"*+	c #212225",
"=+	c #1C1E20",
"-+	c #222327",
";+	c #414345",
">+	c #303135",
",+	c #323337",
"'+	c #3D3E41",
")+	c #27292B",
"!+	c #1F2123",
"~+	c #1D1F23",
"{+	c #1C1E22",
"]+	c #1E2024",
"^+	c #1F2024",
"/+	c #191B1F",
"(+	c #1D1E22",
"_+	c #202124",
":+	c #444546",
"<+	c #424344",
"[+	c #3C3D40",
"}+	c #3A3B3E",
"|+	c #323335",
"1+	c #424244",
"2+	c #454647",
"3+	c #454648",
"4+	c #3C3D3F",
"5+	c #3F3F42",
"6+	c #343637",
"7+	c #393B3D",
"8+	c #3A3C3E",
"9+	c #16191B",
"0+	c #1C1D20",
"a+	c #1A1C1E",
"b+	c #191C1E",
"c+	c #181B1D",
"d+	c #151719",
"e+	c #3E4042",
"f+	c #404244",
"g+	c #202125",
"h+	c #1E1F21",
"i+	c #1D2023",
"j+	c #202326",
"k+	c #1A1B1F",
"l+	c #232326",
"m+	c #3B3B3E",
"n+	c #222426",
"o+	c #2D2E32",
"p+	c #1E1F23",
"q+	c #17181C",
"r+	c #16181C",
"s+	c #16171B",
"t+	c #1A1C20",
"u+	c #1B1E21",
"v+	c #191C1F",
"w+	c #171A1D",
"x+	c #191A1E",
"  . +   @ + + # + + + + + # + + + +   $     % % & % % * * = - - ; % * > % , ' ) ) ' - - ! = ~ ! - - - - ; ' ' { ) ] ] ^ ^ / / ( ",
"_ : < [ } | 1 1 2 3 | 2 } 3 3 4 5 [ 6 2 4 6 4 7 | 7 8 8 9 0 a b c d 3 2 2 e f 1 1 g h 2 f g f } [ i 1 1 1 1 2 2 [ h j k 8 8 l ' ",
"m n o p q r s s t t q t u t o v o p q o w x y z z z v A B C   = = D E x o p q F G F q q q p o p t t t q H t p p o z E E I B J K ",
"B 9 t p q u G L G q t u r u L q o M p o z o x x y N N O P Q . - R j E S x w w t z x a G u H G u u L q t q E t t G o x N y y T ] ",
"m n u L z y t G G t q y G u u G q p q w x w o y y A I O P A b - U V x W z z X t o p p t G x Y t Z u t v A P H Z q x w A z y ` ' ",
"Q  .u u u G q F G O G ..q t p r p o Y x z x x x z z O X +.A B @.#.8 z x w z t p q t o q u u t q E u u G q G u t x x G w x O _ $.",
". x A b %.&.C J *.=.&.=.=.-.. . +         +   ;.$ >.    ' . ,./ '.X ;.. ).% . . . =.&.!.~.%.% + % %.B   &.&.&.!.&.. . {.  % ].] ",
"% =.^./.(._.:.<.[.[.}.|.1.<.|.<.<.<.2.3._.1._.4.<.<.4.<.<.5.5._.6.7._.2.3.<._.8.3.3._.3.3.<.<.<.<.2.3.2.}.2.3.9.0.a.b.5.<.<.3.:.",
"{.z m C . / 3.% -.c.%.d.  + e.=.f.. + g.= h.*   #   % . + . . = i.o . %.j.%.. c   # k.+ + -.=.. J . + J C k.+ l.* / m.+.. + l.3.",
"C n x X Q ' 3.;.-.J m b b T z n.X X o.B p.b ` q.q.A T A +.` ` + r.l =.Q s.O s.o.q.+.P O O z N O O t.s.q.+.Q X *.c.@.u.v.B C J |.",
"B j E z A w.3.. o.n.v X S O S n.z x W O X X t.t.t.O O O q.s.` + @.j q.P t.O z O X s.o E x z o E E E O s.X A z Q &.- x.a X X {.<.",
"m y.Y Y X - 4.=.X X x o x O x z x x x z z z z z z t.O O X A b J z.A.` s.O t.W x S o G x o Y E o x x B B.s.P T q.*.* z.: n.X + <.",
"B C.p W I - 8.. X X O z X S z z O x x z z z z z W O O O O I P p.h.8 X O q.q.z t.s.S q o q p o w E x x z t.s.Q A ` % D.E.X n.k.|.",
"B y.q t.%.' _.c.N I P z O W z x A s.z z z z N z t.N P o.A X A c.F.C.X s.A I z S x z E o o o o o o w y z N N X X q.h.G.H.X o.J [.",
"B y.x P =.$.8.=.X B X S z x x x s.O z O O z z z t.O b C ` ` b e.I.C.X X N z S S W x x o o o o x o E x z z s.P X ` % w.J.X A d.[.",
"m y.x z b $._.+ A s.O N O O z z z z z N q.z z t.t.O n.Q m B *.  F.j A z q z S W z x o E x o S S o x z S z O X A m h.D.H.X b   [.",
"m K.o z q.w._.+ q.s.N z X X x S z z S S z z z t.N z P A Q B Q {.L.K.A O z y x x X o q o E x o o o o x S z N T C B c z.n X A   [.",
"B j p O o.= _.% *.A N O N z x z t.z z S W S A o.X A M.A X ` Q   N.O.I ` N S y x x o q q o E E E x x x z N A ` *.&.* z.E.n.I   P.",
"C : y O B $._.% ~.q.A A N z z O z z S z S S X P X I o.o.A q.p.& r.v.I q.P N S S x x Y p o o z x x z O O O *.C C c.= @.Q.n.q.+ P.",
"B 9 S O R.w._.+ ~.*.P O P s.z N z O O z x S O n.t.X o.q.Q *.d.= S.L A t.N A X x x S E o E o w E z X A P P B b %._ * F.9 A o.{.P.",
"m 6 o N o.l.0.% %.m o.I A s.A z S O P z X z O n.S P q.*.C b %.- T.v.q.t.s.A n.z z E Y Y E o E S N A I O s.A I C c.U.z.V.q.` + W.",
"p.n X.z o.% 0.,.J e.*.B b Q m A I q.o.A m I o.X n.A ` b +.m . $.r.Y.C B *.A o.o.n.P O z x z n.A o.*.p.b Q p.=.-.. $.Z.`.Q %.  W.",
"B  +o S A L.6./.- - *   * * % % .+% >.  * %   + h.  & % L.~ $.W.++n.- = = h.h.%     + . =.=.+ c   - N.* @+Z.' ' / W.D.H.q.` . #+",
"C A.E z q.' 9.% A E A Y x o p x y o o x x O G E q t G o +.A e./ $+Y A O u t u o t a o t G x E O z z z z v O O N Q - D.v.I ` . %+",
"*.C.E S Q ' _.. T P O x E o o p q G u q q o t q q q p N X O m = G.&+T v X z p o o o q a q x w S y N A A X B I T b - *+r A I + =+",
"*.j x X Q -+_.$ %.` O O t.z S x o X.o x S z O L x x y P A A p.- *+v.q.A b A s.t.z z x x O X q.A P q.B b b c.C C =.$.r.u o.I   7.",
"p.;+x X B Z.3.% C +.O s.O z z z x O P N O N O z N z z O A A B ' *+Y.` T P O O O z z S z s.P A X s.A ` m B C %.c.J $.r.r A q.J W.",
"p. .E X B ~ <.% C ` A A I N N N t.Q I E z O O s.X o.o.n.s.X b - x.Z +.o.X X >+X t.,+N O +.N O O s.s.X Q *.B B m &./ S.G o.q.=.W.",
"%.'+O O Q - <.= -.b I m Q O O t.X X O E X N O q.A q.B b o.q.C = $+o B q.s.x X n.O N z O I N O n.T O n.` Q Q Q C =.' S.t ` Q # W.",
"&.r w v Q - [.'   =.%.&.%.` o.o.%.I P A *.o.A *.Q q.B &.e.Q d.$.x.o %.B B X q.q.A P O I I q.q.B B n.X q.b B &.e.)+$.!+v C Q   W.",
". o q.p.=.' [.$.U..+U.  + c + +   j.J + + + J =.j.. . c * # @.~+%+C + . L.h.)+J -.C %.d.=.-.# # =.C &.. # + k.+ = {+=+C . -.].7.",
"$ &.- ) / {+[.K ]+]+^+$.) / ]+K $.] K ]+x.x.K ]+/ /././.K /.%+/+<./ / / /.K (+K / / K K x./ K K _+$.T./ / / / / %+[.5.' ' $./.[.",
"+ s 9  .n : : : H.C.A.:+9 9 n <+n n n : H.&+[+v.}+D v.D 0 S |+& P._ &+1+: 9 2+: 3+9 4+5+: n n &+v.[+: }+s v.H.4+4+v.&+4+D 6+-.4.",
"=.V.&+4+[+4+l s s D D &+d 7+v.D 8+}+}+r q p s u Z G q v y B B * '.z G D D 8+4+}+&+d r }+D u r s L a D t o t L G t H o y z |+&.2.",
"e. .x z p z T N |+Q X o w O E P P z O O T |+x O q.O I C Q =.= $.T.q C o.v O X O |+A T P q.+.X s.z z O I I X A Q p.n.C %.%.X + _.",
"# 4+p y S X o x z w q t q p x X X z N O z y z N X O X X A _ . ) $+o X P x y O Q A y n.A z q x v z O O O P X T A A q.` q.q.q.h.3.",
"=.: t o y z w x z z O p w w z q.z O N X X O P N N O N N +.C   ' x.o A O z S N B.O y y z z x o o X T O O s.P X n.A +.Q c.Q B = 9+",
"  H p.c.c.%.%.&.e.&.# &.-.-.=.. {.+ &.. ;.. J =.=.J J . % % ! K 0+c.% + # -.=.j.=.d.=.=.J j.-.d.c )+. # # ;.c   l.h.l.=   % / 8.",
"/ - (+W.7.P.a+a+a+a+}.a+b+}.5.}.[.|.}.[.|.5.[.[.[.[.[.[.<.5.<.3.0.P.2.[.5.}.a+}.a+a+a+}.a+}.[.[.5.c+}.[.5.5.<.<.2.<.2.<.5.<.4.d+",
"' I -.c * %+0.$.= - - $.' w./ / $.' ' $.$./ ' / w.* Z.N.' ' K P.0+m $.- l.+   U h.c h.= Z.- Z.= - $.U - ' - ' w.$.P.2.L.Z.' K d+",
")+D x Q &.$._.% =.B +.Q Q ` m *.c.&.` B p.c.C _ %.m Q B -.. % /.S.L d.&.+.b *.+.o.T o.q.Q B Q A A +.b b p.=.J # >.K 7.Q c.=.].9.",
"=.e+X X &./._.  %.q.X q.X P s.P X X s.s.X X P T A X O X +.B . $.S.r *.*.Q Q +.P b Q z z N z z x x y O X q.c.q.m J *+$+x -.e.  9.",
"&.f+z O *.K 2.. m A X o.O s.O O P n.O O P A O s.P s.P X m *.&.Z.u.J.*.m Q +.q.A A X S S o o o w x x z P X o.o.+.. U D.4+*.` k.9.",
"%.C.x S b K 2.=.I T A n.s.A O O X A O t.N A O O s.O q.q.n.Q %.* r.s %.Q b q.o.X O t.x x o q w x x x O O s.n.q.p.&.% D.H.Q q.# 8.",
"_  .o Y Q / _.  b ` q.O O O O N z z z z z t.t.q.s.s.A A X A %.- S.s b Q q.o.n.P O z E o o Y o E z z A O P n.q.c._ = D.'+A o.+ 3.",
"c.O.o z o.w.8.+ q.n.A s.O P P O N O N N O s.O s.O T I X q.*.p.- !+t Q Q X A X P N z x x o o o x x O N s.A o.A q.C N.D.d o.q.  4.",
"_ V v |+Q $.4.# ` A P O o.I O O s.O N N s.s.O N O O X n.m &.*.*+r.[+b B A O p.X O O z z v P z N N O q.` n.o.A A *.- w.}+q.q.. 2.",
"C j z z b ] 4.;.B ` q.X s.X O N O z O O O O N O X I n.P A Q *._+'.y B A s.N O P N O t.z O T z S z O X X n.A A I %.- D.v.p.o.. 2.",
"C 9 A z q.g+_.+ Q b Q T O s.X t.z s.n.T X O O O X Q I P A o.&.$.r.}+%.B Q n.P s.O z t.t.z t.N N O s.P X A A o.+.=.' U e+` +.+ 2.",
"%.6 x O B $.9.% &.` Q A P Q s.O X ` +.Q *.X O O O N T X A -.+ $.i.x _ *.X O b o.O O N O O O N O s.X X n.T I B C . - D.4+*.C . <.",
"C j P X %./ 9.-+. B q.q.A s.v O ` I t.N O X P O A z X q.+.q.+ / h+z &.*.T A X X T m m P O X Q X X X X n.%.o.+.c.. $.D.d p.p.=.[.",
"C C.X q.C $.0.) # &.c.I A I n.X q.o.A A n.C &.Q B.q.c.c ~.C c / S.t # &._ &.c.*.+.A T X X A B *.B q.Q C Q _ _ C . / D.4+*.p.% [.",
"c.j P m Q / d+[.(+K i+/ $.$.$.) j+$.^ $.] / K $.' ' $.]+$.]+%+<.2.= ~+K / /./.^+$.$.$.' $.- $./ T.] ]+/ / i+K K %+P.N.&+A q.c }.",
"C 3+O X b ' _.% o.z O x S x s p t z E Y O Y a r D L p q y q O L.$+G I x G A x N s.x o o q H t o E o E o w x z A -.' F.n o.q.h.[.",
"J &+z n.b ' 9.' $ + c.B b B Q O T q.o.q.q.X T o.A ` B B B b =.* S.u %.b C c.C q.o.m I X A q.X I A T m B B B %.&.+ / D.v.q.q.  }.",
"e.: X A C $.3.% C B p.b b m p.A X s.n.o.Q A b X A I A o.I ` J = _+s %.*.*.B A X o.q.T X P T X n.T A p.C A q.c.p.&.$.U : o.q.  k+",
"=.: N Q + $._.% %.%.&.*.Q B A A I P +.*.Q q.X P X X T o.I ` =.U r.}+=.*.Q b q.P A X s.X X b T X A ` A q.A ` B p.e.' l+d o.q.c a+",
"-.A.O Q -.$._..+&.%.*.b ` b q.T ` X T A X n.X X P X A ` Q Q =.= $+q =.` ` ` ` O O n.X X X A X n.A A X A q.c.C %.c.' D.m+Q q.. }.",
". H.X Q Q w.9.* =.*.*.B +.` p.n.A ` q.n.n.X X X ` A A q.` m p.- x.F =.q.Q q.I A q.A q.X X P X X X T A +.Q %.B &.c.n+n+D Q ` =.P.",
"{.`.X O ` ' _.=   &.*.%.c.b %.b o.I B B >+b q.n.q.q.` Q b B *.' i.x . &.*.` n.>+o.X A n.X X n.` I A ` B Q m c.=.c.' S.Y ` ` # P.",
"# &+o.A *.$._.) > + %.J =.C _ &.q.q.*.=.&.c.b ` q.Q -.+ =.C C / _+L -.%.C m A M.q.A A +.q.C B %.&.&.C C B c.k.  * $._+G Q Q   [.",
")+D |+%.J g+8.,.* * =.    U.).. &.=.=.# . +   {.. +   % % =.&.$.i.S + j.&.C p.Q b ` Q %.B o+C -.J =.&.=.+ d.. =.U./ '.X %..   a+",
"- *.=.% * /.8.K $.= $.- * - - * ~ -+= * g.= /.- = ^.$.' ' $.^+W.W.J *   =.. . + ;.+   >.% ;.+ = = = = = - = - - g+/.P.J % l.$.|.",
"i+p+P./+<.9.6.9.9.3.3.3.3.3.3.q+q+9.9.r+9.9.6.s+9.9.9.9.9.9.9.3.9.<.[.t+#+u+%+W.W.P.v+[.<.<.<.w+3.3.3.3.3.3.q+r+9.9.9.P.[.x+<.3."};
