/* XPM */
static char *labyrinth_wall_xpm[] = {
"16 16 6 1",
"0 c #101010",  /* ombre très sombre */
"1 c #2A2A2A",  /* pierre sombre */
"2 c #444444",  /* gris moyen foncé */
"3 c #666666",  /* gris pierre */
"4 c #8C8C8C",  /* lueur pierre claire */
"5 c #B0B0B0",  /* point lumineux (reflets) */
"0112223333221100",
"0123344554332210",
"0123342334233210",
"0112233333221100",
"0012334554322100",
"0123342334233210",
"0123445554433210",
"0112223333221100",
"0112223444321100",
"0123445554432210",
"0123342334233210",
"0012233443322100",
"0112334554321100",
"0123342334233210",
"0011223333221100",
"0000000000000000"
};

